<svg xmlns="http://www.w3.org/2000/svg" xmlns:xlink="http://www.w3.org/1999/xlink" width="700" zoomAndPan="magnify" viewBox="0 0 525 71.249999" height="95" preserveAspectRatio="xMidYMid meet" version="1.0"><defs><g/><clipPath id="b61fcb8334"><path d="M 35 4 L 94.480469 4 L 94.480469 49 L 35 49 Z M 35 4 " clip-rule="nonzero"/></clipPath></defs><path fill="#6d91c3" d="M 67.667969 12.0625 C 57.125 15.445312 48.871094 11.195312 43.824219 7.980469 C 37.363281 3.863281 29.613281 5.339844 27.503906 14.132812 C 23.230469 31.929688 39.707031 65.386719 46.09375 64.8125 C 54.527344 64.054688 48.832031 49.316406 60.820312 52.941406 C 49.472656 45.605469 50.203125 59.890625 46.335938 59.617188 C 40.210938 59.1875 31.148438 34.417969 31.507812 20.070312 C 31.710938 11.835938 37.058594 8.835938 44.1875 12.941406 C 49.132812 15.789062 57.714844 18.257812 67.667969 12.0625 Z M 67.667969 12.0625 " fill-opacity="1" fill-rule="evenodd"/><g clip-path="url(#b61fcb8334)"><path fill="#255a9b" d="M 52.964844 10.777344 C 57.394531 6.199219 70.929688 0.03125 78.925781 8.839844 C 79.644531 9.632812 80.28125 10.484375 80.839844 11.390625 C 88.96875 14.113281 94.328125 18.753906 94.328125 24.023438 C 94.328125 28.976562 89.59375 33.375 82.277344 36.148438 C 80.855469 40.789062 78.695312 45.066406 76.109375 48.300781 C 77.308594 44.652344 78.285156 40.902344 78.972656 37.238281 C 74.566406 38.492188 69.464844 39.210938 64.03125 39.210938 C 50.894531 39.210938 39.707031 35.015625 35.511719 29.152344 C 40.734375 32.859375 49.8125 35.3125 60.132812 35.3125 C 76.324219 35.3125 89.453125 29.277344 89.453125 21.832031 C 89.453125 18.269531 86.445312 15.03125 81.535156 12.621094 C 83.691406 16.785156 84.386719 21.867188 84.011719 27.023438 C 82.882812 27.9375 81.53125 28.78125 79.988281 29.546875 C 80.511719 22.019531 79.429688 15.535156 76.03125 12.054688 C 67.46875 3.285156 57.371094 8.898438 52.964844 10.777344 Z M 52.964844 10.777344 " fill-opacity="1" fill-rule="evenodd"/></g><g fill="#6d91c3" fill-opacity="1"><g transform="translate(96.460757, 52.248862)"><g><path d="M 18.546875 0.492188 C 28.90625 0.492188 35.8125 -6.214844 35.8125 -16.820312 C 35.8125 -27.328125 29.105469 -34.039062 18.597656 -34.039062 C 8.238281 -34.039062 1.332031 -27.476562 1.332031 -16.871094 C 1.332031 -6.414062 8.039062 0.492188 18.546875 0.492188 Z M 18.546875 -6.214844 C 13.121094 -6.214844 8.730469 -10.160156 8.730469 -16.871094 C 8.730469 -23.53125 13.121094 -27.328125 18.546875 -27.328125 C 24.074219 -27.328125 28.414062 -23.480469 28.414062 -16.871094 C 28.414062 -10.160156 24.074219 -6.214844 18.546875 -6.214844 Z M 18.546875 -6.214844 "/></g></g></g><g fill="#6d91c3" fill-opacity="1"><g transform="translate(132.268686, 52.248862)"><g><path d="M 11.640625 0 C 24.121094 0 29.796875 -7.300781 29.796875 -16.773438 C 29.796875 -26.242188 24.074219 -33.542969 11.640625 -33.542969 L 3.652344 -33.542969 C 3.007812 -33.542969 2.664062 -33.199219 2.664062 -32.558594 L 2.664062 -0.988281 C 2.664062 -0.34375 3.007812 0 3.652344 0 Z M 10.0625 -26.835938 L 12.332031 -26.835938 C 19.535156 -26.835938 22.394531 -22.347656 22.394531 -16.773438 C 22.394531 -11.199219 19.484375 -6.707031 12.332031 -6.707031 L 10.0625 -6.707031 Z M 10.0625 -26.835938 "/></g></g></g><g fill="#6d91c3" fill-opacity="1"><g transform="translate(162.059259, 52.248862)"><g><path d="M 18.546875 0.492188 C 28.90625 0.492188 35.8125 -6.214844 35.8125 -16.820312 C 35.8125 -27.328125 29.105469 -34.039062 18.597656 -34.039062 C 8.238281 -34.039062 1.332031 -27.476562 1.332031 -16.871094 C 1.332031 -6.414062 8.039062 0.492188 18.546875 0.492188 Z M 18.546875 -6.214844 C 13.121094 -6.214844 8.730469 -10.160156 8.730469 -16.871094 C 8.730469 -23.53125 13.121094 -27.328125 18.546875 -27.328125 C 24.074219 -27.328125 28.414062 -23.480469 28.414062 -16.871094 C 28.414062 -10.160156 24.074219 -6.214844 18.546875 -6.214844 Z M 18.546875 -6.214844 "/></g></g></g><g fill="#6d91c3" fill-opacity="1"><g transform="translate(197.867189, 52.248862)"><g><path d="M 2.714844 0.988281 C 7.003906 0 10.113281 -3.15625 10.113281 -10.804688 L 10.113281 -16.03125 C 10.113281 -19.335938 9.472656 -20.769531 8.632812 -22.542969 L 8.828125 -22.691406 L 23.679688 -0.640625 C 23.972656 -0.199219 24.367188 0 24.863281 0 L 30.042969 0 C 30.683594 0 31.027344 -0.34375 31.027344 -0.988281 L 31.027344 -34.53125 C 26.738281 -33.542969 23.628906 -30.386719 23.628906 -22.742188 L 23.628906 -17.511719 C 23.628906 -14.207031 24.269531 -12.777344 25.109375 -11 L 24.910156 -10.851562 L 10.0625 -32.902344 C 9.765625 -33.347656 9.371094 -33.542969 8.878906 -33.542969 L 3.699219 -33.542969 C 3.058594 -33.542969 2.714844 -33.199219 2.714844 -32.558594 Z M 2.714844 0.988281 "/></g></g></g><g fill="#6d91c3" fill-opacity="1"><g transform="translate(230.321182, 52.248862)"><g><path d="M 1.183594 -33.542969 C 0.542969 -33.542969 0.199219 -33.199219 0.199219 -32.558594 L 0.199219 -27.820312 C 0.199219 -27.179688 0.542969 -26.835938 1.183594 -26.835938 L 14.207031 -26.835938 C 11.246094 -25.578125 9.273438 -22.027344 9.273438 -17.511719 L 9.273438 -0.988281 C 9.273438 -0.34375 9.621094 0 10.261719 0 L 15.6875 0 C 16.328125 0 16.671875 -0.34375 16.671875 -0.988281 L 16.671875 -26.835938 L 24.761719 -26.835938 C 25.40625 -26.835938 25.75 -27.179688 25.75 -27.820312 L 25.75 -32.558594 C 25.75 -33.199219 25.40625 -33.542969 24.761719 -33.542969 Z M 1.183594 -33.542969 "/></g></g></g><g fill="#6d91c3" fill-opacity="1"><g transform="translate(254.982211, 52.248862)"><g><path d="M 18.546875 0.492188 C 28.90625 0.492188 35.8125 -6.214844 35.8125 -16.820312 C 35.8125 -27.328125 29.105469 -34.039062 18.597656 -34.039062 C 8.238281 -34.039062 1.332031 -27.476562 1.332031 -16.871094 C 1.332031 -6.414062 8.039062 0.492188 18.546875 0.492188 Z M 18.546875 -6.214844 C 13.121094 -6.214844 8.730469 -10.160156 8.730469 -16.871094 C 8.730469 -23.53125 13.121094 -27.328125 18.546875 -27.328125 C 24.074219 -27.328125 28.414062 -23.480469 28.414062 -16.871094 C 28.414062 -10.160156 24.074219 -6.214844 18.546875 -6.214844 Z M 18.546875 -6.214844 "/></g></g></g><g fill="#255a9b" fill-opacity="1"><g transform="translate(290.795875, 52.248862)"><g/></g></g><g fill="#255a9b" fill-opacity="1"><g transform="translate(302.28776, 52.248862)"><g><path d="M 20.914062 -26.835938 C 21.558594 -26.835938 21.902344 -27.179688 21.902344 -27.820312 L 21.902344 -32.558594 C 21.902344 -33.199219 21.558594 -33.542969 20.914062 -33.542969 L 3.453125 -33.542969 C 2.8125 -33.542969 2.464844 -33.199219 2.464844 -32.558594 L 2.464844 -27.820312 C 2.464844 -27.179688 2.8125 -26.835938 3.453125 -26.835938 L 7.867188 -26.835938 C 4.636719 -25.578125 2.464844 -22.171875 2.464844 -17.019531 L 2.464844 -0.988281 C 2.464844 -0.34375 2.8125 0 3.453125 0 L 20.914062 0 C 21.558594 0 21.902344 -0.34375 21.902344 -0.988281 L 21.902344 -5.722656 C 21.902344 -6.363281 21.558594 -6.707031 20.914062 -6.707031 L 9.867188 -6.707031 L 9.867188 -18.71875 C 11.050781 -15.882812 14.109375 -13.960938 18.746094 -13.960938 L 20.421875 -13.960938 C 21.0625 -13.960938 21.410156 -14.304688 21.410156 -14.945312 L 21.410156 -19.683594 C 21.410156 -20.324219 21.0625 -20.667969 20.421875 -20.667969 L 9.867188 -20.667969 L 9.867188 -26.835938 Z M 20.914062 -26.835938 "/></g></g></g><g fill="#255a9b" fill-opacity="1"><g transform="translate(324.877235, 52.248862)"><g><path d="M 14.402344 0.492188 C 20.273438 0.492188 27.328125 -2.023438 27.328125 -10.261719 C 27.328125 -17.460938 22 -19.089844 17.117188 -20.175781 C 13.269531 -21.015625 9.765625 -21.410156 9.765625 -24.617188 C 9.765625 -26.882812 11.492188 -28.019531 14.109375 -28.019531 C 16.574219 -28.019531 18.5 -27.03125 19.042969 -24.269531 C 19.140625 -23.628906 19.484375 -23.332031 20.078125 -23.332031 L 25.40625 -23.332031 C 26.046875 -23.332031 26.390625 -23.679688 26.34375 -24.367188 C 25.800781 -31.226562 19.878906 -34.039062 14.257812 -34.039062 C 8.386719 -34.039062 2.367188 -30.878906 2.367188 -23.578125 C 2.367188 -17.460938 6.609375 -15.6875 10.605469 -14.601562 C 15.195312 -13.367188 19.929688 -13.171875 19.929688 -9.175781 C 19.929688 -6.414062 17.609375 -5.523438 15.144531 -5.523438 C 11.9375 -5.523438 9.519531 -7.054688 9.078125 -10.113281 C 9.027344 -10.703125 8.683594 -11.050781 8.089844 -11.050781 L 2.320312 -11.050781 C 1.675781 -11.050781 1.332031 -10.703125 1.332031 -10.0625 C 1.726562 -2.566406 7.941406 0.492188 14.402344 0.492188 Z M 14.402344 0.492188 "/></g></g></g><g fill="#255a9b" fill-opacity="1"><g transform="translate(352.398972, 52.248862)"><g><path d="M 1.183594 -33.542969 C 0.542969 -33.542969 0.199219 -33.199219 0.199219 -32.558594 L 0.199219 -27.820312 C 0.199219 -27.179688 0.542969 -26.835938 1.183594 -26.835938 L 14.207031 -26.835938 C 11.246094 -25.578125 9.273438 -22.027344 9.273438 -17.511719 L 9.273438 -0.988281 C 9.273438 -0.34375 9.621094 0 10.261719 0 L 15.6875 0 C 16.328125 0 16.671875 -0.34375 16.671875 -0.988281 L 16.671875 -26.835938 L 24.761719 -26.835938 C 25.40625 -26.835938 25.75 -27.179688 25.75 -27.820312 L 25.75 -32.558594 C 25.75 -33.199219 25.40625 -33.542969 24.761719 -33.542969 Z M 1.183594 -33.542969 "/></g></g></g><g fill="#255a9b" fill-opacity="1"><g transform="translate(377.059995, 52.248862)"><g><path d="M 18.546875 0.492188 C 28.90625 0.492188 35.8125 -6.214844 35.8125 -16.820312 C 35.8125 -27.328125 29.105469 -34.039062 18.597656 -34.039062 C 8.238281 -34.039062 1.332031 -27.476562 1.332031 -16.871094 C 1.332031 -6.414062 8.039062 0.492188 18.546875 0.492188 Z M 18.546875 -6.214844 C 13.121094 -6.214844 8.730469 -10.160156 8.730469 -16.871094 C 8.730469 -23.53125 13.121094 -27.328125 18.546875 -27.328125 C 24.074219 -27.328125 28.414062 -23.480469 28.414062 -16.871094 C 28.414062 -10.160156 24.074219 -6.214844 18.546875 -6.214844 Z M 18.546875 -6.214844 "/></g></g></g><g fill="#255a9b" fill-opacity="1"><g transform="translate(412.867924, 52.248862)"><g><path d="M 32.828125 -6.3125 C 34.753906 -9.101562 35.8125 -12.652344 35.8125 -16.820312 C 35.8125 -27.328125 29.105469 -34.039062 18.597656 -34.039062 C 8.238281 -34.039062 1.332031 -27.476562 1.332031 -16.871094 C 1.332031 -6.414062 8.039062 0.492188 18.546875 0.492188 C 22.148438 0.492188 25.304688 -0.320312 27.945312 -1.800781 L 31.128906 1.382812 C 31.375 1.628906 31.621094 1.726562 31.867188 1.726562 C 32.0625 1.726562 32.3125 1.628906 32.507812 1.429688 L 35.910156 -1.777344 C 36.160156 -2.023438 36.257812 -2.269531 36.257812 -2.515625 C 36.257812 -2.714844 36.160156 -2.960938 35.960938 -3.15625 Z M 18.546875 -6.214844 C 13.121094 -6.214844 8.730469 -10.160156 8.730469 -16.871094 C 8.730469 -23.53125 13.121094 -27.328125 18.546875 -27.328125 C 24.074219 -27.328125 28.414062 -23.480469 28.414062 -16.871094 C 28.414062 -14.945312 28.042969 -13.246094 27.402344 -11.789062 L 26.34375 -12.875 C 24.367188 -14.898438 21.804688 -15.984375 19.089844 -15.984375 C 18.054688 -15.984375 17.265625 -15.835938 14.503906 -15.242188 L 22.691406 -7.054688 C 21.433594 -6.511719 20.027344 -6.214844 18.546875 -6.214844 Z M 18.546875 -6.214844 "/></g></g></g><g fill="#255a9b" fill-opacity="1"><g transform="translate(449.21839, 52.248862)"><g><path d="M 15.441406 0.492188 C 23.777344 0.492188 28.660156 -4.144531 28.660156 -13.46875 L 28.660156 -33.542969 C 24.367188 -33.050781 21.261719 -29.402344 21.261719 -23.234375 L 21.261719 -13.46875 C 21.261719 -8.828125 19.980469 -6.214844 15.441406 -6.214844 C 11 -6.214844 9.71875 -8.828125 9.71875 -13.46875 L 9.71875 -32.558594 C 9.71875 -33.199219 9.371094 -33.542969 8.730469 -33.542969 L 3.304688 -33.542969 C 2.664062 -33.542969 2.320312 -33.199219 2.320312 -32.558594 L 2.320312 -13.074219 C 2.320312 -4.144531 7.203125 0.492188 15.441406 0.492188 Z M 15.441406 0.492188 "/></g></g></g><g fill="#255a9b" fill-opacity="1"><g transform="translate(478.860996, 52.248862)"><g><path d="M 20.914062 -26.835938 C 21.558594 -26.835938 21.902344 -27.179688 21.902344 -27.820312 L 21.902344 -32.558594 C 21.902344 -33.199219 21.558594 -33.542969 20.914062 -33.542969 L 3.453125 -33.542969 C 2.8125 -33.542969 2.464844 -33.199219 2.464844 -32.558594 L 2.464844 -27.820312 C 2.464844 -27.179688 2.8125 -26.835938 3.453125 -26.835938 L 7.867188 -26.835938 C 4.636719 -25.578125 2.464844 -22.171875 2.464844 -17.019531 L 2.464844 -0.988281 C 2.464844 -0.34375 2.8125 0 3.453125 0 L 20.914062 0 C 21.558594 0 21.902344 -0.34375 21.902344 -0.988281 L 21.902344 -5.722656 C 21.902344 -6.363281 21.558594 -6.707031 20.914062 -6.707031 L 9.867188 -6.707031 L 9.867188 -18.71875 C 11.050781 -15.882812 14.109375 -13.960938 18.746094 -13.960938 L 20.421875 -13.960938 C 21.0625 -13.960938 21.410156 -14.304688 21.410156 -14.945312 L 21.410156 -19.683594 C 21.410156 -20.324219 21.0625 -20.667969 20.421875 -20.667969 L 9.867188 -20.667969 L 9.867188 -26.835938 Z M 20.914062 -26.835938 "/></g></g></g></svg>